# xmcd
#
# Track frame offsets:
#	150
#	3428
#	19098
#	33428
#	48209
#	66802
#	81612
#	100505
#	119735
#	144607
#	162493
#	174429
#	189741
#	202521
#	215058
#	229184
#
# Disc length: 3277 seconds
#
# Revision: 1
# Processed by: cddbd v1.4PL0 Copyright (c) Steve Scherf et al.
# Submitted via: audiograbber 1.80
#
DISCID=dc0ccb10
DTITLE=Fátima Marques - Volume 5
DYEAR=1900
DGENRE=
TTITLE0=Abertura
TTITLE1=Amor de Rapariga (Melô da Rapariga)
TTITLE2=Meu Brasil
TTITLE3=Não Me Deixe
TTITLE4=O Que Sinto Por Você
TTITLE5=Dia de Formatura
TTITLE6=Bandolins
TTITLE7=Nosso Amor Está Por Um Triz
TTITLE8=Cadê Você
TTITLE9=Amor Sem Fim
TTITLE10=História de um Amor
TTITLE11=Meu Nordeste
TTITLE12=Tudo de Mim
TTITLE13=Diz Que Me Ama
TTITLE14=Chuvas e Lágrimas se Misturam
TTITLE15=História de un Amor
EXTD=
EXTT0=
EXTT1=
EXTT2=
EXTT3=
EXTT4=
EXTT5=
EXTT6=
EXTT7=
EXTT8=
EXTT9=
EXTT10=
EXTT11=
EXTT12=
EXTT13=
EXTT14=
EXTT15=
PLAYORDER=
